<?xml version="1.0" standalone="no"?>
<!DOCTYPE svg PUBLIC "-//W3C//DTD SVG 20010904//EN"
 "http://www.w3.org/TR/2001/REC-SVG-20010904/DTD/svg10.dtd">
<svg version="1.0" xmlns="http://www.w3.org/2000/svg"
 width="500.000000pt" height="500.000000pt" viewBox="0 0 500.000000 500.000000"
 preserveAspectRatio="xMidYMid meet">
<metadata>
Created by potrace 1.11, written by Peter Selinger 2001-2013
</metadata>
<g transform="translate(0.000000,500.000000) scale(0.100000,-0.100000)"
fill="#000000" stroke="none">
<path d="M2235 4614 c-336 -45 -662 -168 -927 -350 -168 -116 -333 -264 -433
-389 -22 -27 -48 -59 -58 -70 -40 -43 -168 -245 -215 -340 -65 -130 -142 -326
-156 -401 -2 -10 -11 -46 -19 -79 -16 -59 -30 -138 -43 -225 -3 -25 -7 -128
-9 -230 -4 -217 16 -395 61 -556 l14 -52 71 21 c67 20 70 22 65 46 -58 280
-57 269 -61 476 -6 315 47 572 179 868 34 75 116 221 127 225 5 2 9 9 9 14 0
15 133 191 189 252 66 70 171 171 206 197 17 13 32 26 35 29 13 17 126 93 215
147 239 144 512 239 780 270 87 10 380 10 460 0 307 -38 567 -130 825 -290
265 -166 512 -420 659 -679 11 -21 29 -53 39 -70 77 -136 170 -400 196 -556 3
-15 11 -58 17 -97 14 -78 18 -401 6 -510 -10 -94 -50 -271 -86 -381 -239 -731
-894 -1265 -1661 -1352 -129 -14 -419 -7 -535 13 -133 24 -223 47 -340 87 -75
26 -257 105 -280 122 -14 10 -31 7 -98 -16 -45 -16 -127 -44 -182 -63 -55 -18
-273 -93 -485 -165 -212 -73 -393 -134 -403 -137 -20 -6 -29 -34 168 497 65
173 125 338 135 367 l18 51 -66 25 c-37 14 -70 22 -74 19 -4 -4 -22 -50 -41
-102 -19 -52 -103 -282 -188 -512 l-153 -416 -58 -18 c-32 -9 -58 -18 -58 -19
0 -7 34 -105 42 -122 7 -14 32 -31 62 -42 28 -11 58 -22 67 -26 13 -5 22 6 40
52 l22 59 211 71 c253 86 928 317 973 333 29 10 41 8 120 -28 110 -49 207 -85
298 -110 118 -33 108 -31 360 -72 82 -13 439 -4 549 14 512 84 973 342 1297
727 87 103 90 107 139 178 187 277 308 597 354 941 14 105 15 437 1 525 -44
279 -102 470 -212 690 -129 258 -358 543 -562 699 -14 11 -28 23 -31 27 -9 11
-194 136 -240 161 -25 14 -61 34 -80 45 -93 51 -313 140 -390 158 -8 1 -35 8
-60 15 -25 7 -53 14 -62 16 -10 2 -28 6 -40 9 -169 40 -515 54 -703 29z"/>
<path d="M1565 3205 l0 -265 323 0 322 0 0 -920 0 -920 294 0 295 0 0 898 c0
493 0 907 0 919 l1 23 323 2 322 3 0 260 0 260 -940 3 -940 2 0 -265z"/>
</g>
</svg>
